<?xml version="1.0" encoding="UTF-8"?>
<svg id="Camada_1" data-name="Camada 1" xmlns="http://www.w3.org/2000/svg" viewBox="0 0 750.06 337.63">
  <defs>
    <style>
      .cls-1 {
        fill: #fff;
        stroke-width: 0px;
      }
    </style>
  </defs>
  <path class="cls-1" d="m251.83,184.26c-1.05,0-2.08.05-3.1.14-4.12.38-8.02,1.51-11.57,3.24-2.45,1.19-4.73,2.67-6.81,4.4,4.32-6.8,6.81-14.86,6.81-23.51,0-24.29-19.69-43.97-43.98-43.97s-43.97,19.68-43.97,43.97c0,.58.01,1.16.03,1.73.31,7.79,2.63,15.05,6.46,21.28-5.05-4.02-11.28-6.61-18.08-7.16-.91-.07-1.85-.12-2.78-.12-18.53,0-33.54,15.02-33.54,33.54,0,3.92.68,7.7,1.92,11.2,3.69,10.44,12.4,18.5,23.24,21.28,2.67.69,5.48,1.06,8.38,1.06s5.71-.37,8.38-1.06c6.17-1.58,11.67-4.89,15.93-9.37,2.2,2.86,4.05,6,5.48,9.37.8,1.84,1.46,3.72,1.99,5.67,1.03,3.71,1.57,7.64,1.57,11.68,0,15.56-8.08,29.22-20.27,37.04-.28.18-.56.36-.85.53-.56.5-.91,1.23-.91,2.04,0,1.28.88,2.37,2.08,2.66h91.02c1.2-.3,2.08-1.38,2.08-2.66,0-.82-.36-1.56-.93-2.07-.01,0-.01-.01-.02-.01-.25-.16-.51-.31-.76-.47t-.01-.01c-12.69-7.7-21.16-21.65-21.16-37.59,0-5.95,1.19-11.64,3.34-16.81,1.42-3.45,3.27-6.67,5.48-9.61,6.12,6.57,14.85,10.67,24.54,10.67,14.76,0,27.29-9.54,31.78-22.79h0c1.15-3.38,1.76-7,1.76-10.76,0-18.52-15.02-33.54-33.54-33.54Z"/>
  <path class="cls-1" d="m134.84,168.14c.2,0,.39,0,.59.01.19-31.72,25.97-57.38,57.74-57.38,17.62,0,33.39,7.89,43.98,20.32V43.97c0-24.28-19.69-43.97-43.98-43.97-11.44,0-21.86,4.37-29.68,11.54l-7.45,8.87L11.94,192.15l-7.45,8.88h-.01c-2.85,4.94-4.49,10.67-4.49,16.78,0,15.63,10.69,28.76,25.16,32.48h72.1s-5.12-6.75-7-10.58c-3.26-6.61-5.08-14.04-5.08-21.9,0-27.43,22.23-49.67,49.67-49.67Z"/>
  <path class="cls-1" d="m396.19,202c-7.73-4.51-16.47-6.77-26.24-6.77s-18.54,2.26-26.33,6.77c-7.79,4.51-13.94,10.66-18.45,18.45-4.51,7.79-6.77,16.63-6.77,26.51s2.19,18.54,6.58,26.33c4.39,7.79,10.35,13.94,17.89,18.45,7.54,4.51,16.07,6.77,25.59,6.77,9.02,0,17.09-2.07,24.2-6.21,5.77-3.36,10.55-7.72,14.37-13.05v11.29c0,2.1.68,3.8,2.04,5.1,1.36,1.3,3.09,1.95,5.19,1.95s3.83-.65,5.19-1.95c1.36-1.3,2.04-3,2.04-5.1v-43.57c-.12-9.89-2.44-18.73-6.95-26.51-4.51-7.79-10.63-13.94-18.36-18.45Zm6.3,64.71c-3.28,5.87-7.73,10.48-13.35,13.81-5.63,3.34-12.02,5.01-19.19,5.01s-13.41-1.67-19.1-5.01c-5.69-3.34-10.2-7.94-13.54-13.81-3.34-5.87-5.01-12.45-5.01-19.75s1.67-14.03,5.01-19.84c3.34-5.81,7.85-10.41,13.54-13.81,5.68-3.4,12.05-5.1,19.1-5.1s13.56,1.7,19.19,5.1c5.62,3.4,10.07,8,13.35,13.81,3.27,5.81,4.91,12.42,4.91,19.84s-1.64,13.88-4.91,19.75Z"/>
  <path class="cls-1" d="m522.09,201.81c-7.73-4.39-16.59-6.58-26.61-6.58s-18.73,2.2-26.51,6.58c-7.79,4.39-13.91,10.48-18.36,18.26-4.45,7.79-6.68,16.75-6.68,26.89s2.13,18.91,6.4,26.7c4.26,7.79,10.17,13.88,17.71,18.26,7.54,4.39,16.19,6.58,25.96,6.58,8.65,0,16.35-2.01,23.08-6.03,6.74-4.02,12.02-9.58,15.85-16.69v8.44c0,8.16-1.64,15.27-4.91,21.32-3.28,6.05-7.69,10.75-13.26,14.09-5.56,3.34-11.81,5.01-18.73,5.01-7.42,0-13.94-1.36-19.56-4.08-5.63-2.72-10.23-6.3-13.81-10.75-1.11-1.48-2.66-2.41-4.64-2.78-1.98-.37-3.77,0-5.38,1.11-1.61,1.11-2.5,2.53-2.69,4.26-.19,1.73.4,3.34,1.76,4.82,4.82,6.3,10.94,11.28,18.36,14.93,7.42,3.64,16.01,5.47,25.77,5.47s18.66-2.32,26.33-6.95c7.66-4.64,13.72-10.94,18.17-18.91,4.45-7.97,6.67-16.97,6.67-26.98v-37.83c-.12-10.13-2.38-19.1-6.77-26.89-4.39-7.79-10.45-13.87-18.17-18.26Zm6.03,65.17c-3.22,5.81-7.63,10.35-13.26,13.63-5.63,3.28-12.08,4.91-19.38,4.91s-13.78-1.64-19.47-4.91c-5.69-3.27-10.14-7.82-13.35-13.63-3.22-5.81-4.82-12.48-4.82-20.02s1.61-14.25,4.82-20.12c3.21-5.87,7.66-10.44,13.35-13.72,5.68-3.27,12.17-4.91,19.47-4.91s13.75,1.64,19.38,4.91c5.62,3.28,10.04,7.85,13.26,13.72,3.21,5.87,4.82,12.58,4.82,20.12s-1.61,14.22-4.82,20.02Z"/>
  <path class="cls-1" d="m633.8,197.46c-3.09-1.61-7.48-2.41-13.16-2.41-7.17,0-13.69,1.73-19.56,5.19-4.79,2.83-8.83,6.53-12.14,11.09v-8.12c0-2.23-.62-3.95-1.85-5.19-1.24-1.23-2.97-1.85-5.19-1.85s-3.96.62-5.19,1.85-1.85,2.97-1.85,5.19v87.33c0,2.22.62,3.96,1.85,5.19,1.23,1.24,2.97,1.85,5.19,1.85s3.95-.62,5.19-1.85c1.23-1.23,1.85-2.97,1.85-5.19v-55.44c0-5.81,1.58-10.82,4.73-15.02,3.15-4.2,7.42-7.32,12.79-9.36,5.38-2.04,11.52-2.75,18.45-2.13,2.1.12,3.99.25,5.66.37,1.67.12,3.09-.12,4.26-.74,1.17-.62,2.01-1.85,2.5-3.71.74-3.09-.43-5.44-3.52-7.05Z"/>
  <path class="cls-1" d="m743.2,220.26c-4.45-7.79-10.54-13.91-18.26-18.36-7.73-4.45-16.53-6.68-26.42-6.68s-18.73,2.23-26.51,6.68c-7.79,4.45-13.91,10.57-18.36,18.36-4.45,7.79-6.68,16.69-6.68,26.7s2.23,18.73,6.68,26.51,10.57,13.91,18.36,18.36c7.79,4.45,16.62,6.67,26.51,6.67s18.7-2.22,26.42-6.67c7.72-4.45,13.84-10.57,18.36-18.36,4.51-7.79,6.77-16.62,6.77-26.51-.12-10.01-2.41-18.91-6.86-26.7Zm-12.05,46.54c-3.22,5.81-7.67,10.38-13.35,13.72-5.69,3.34-12.12,5.01-19.28,5.01s-13.6-1.67-19.28-5.01c-5.69-3.34-10.17-7.91-13.44-13.72-3.28-5.81-4.91-12.42-4.91-19.84s1.64-14.06,4.91-19.93c3.27-5.87,7.76-10.48,13.44-13.81,5.68-3.34,12.11-5.01,19.28-5.01s13.6,1.67,19.28,5.01c5.68,3.34,10.13,7.94,13.35,13.81,3.21,5.87,4.82,12.52,4.82,19.93s-1.61,14.03-4.82,19.84Z"/>
</svg>